# xmcd CD database file
#
# Track frame offsets:
#	150
#	22945
#	44570
#	67355
#
# Disc length: 1180 seconds
#
# Revision: 0
# Processed by: cddbd v1.5.1PL0 Copyright (c) Steve Scherf et al.
# Submitted via: CDex 1.51
#
DISCID=35049a04
DTITLE=織田裕二 - Over and Over Again
DYEAR=1997
DGENRE=J-Pop
TTITLE0=Over and Over Again
TTITLE1=FLY HIGH
TTITLE2=Over and Over Again(Original Back Track)
TTITLE3=FLY HIGH(Original Back Track)
EXTD=YEAR: 1997
EXTT0=
EXTT1=
EXTT2=
EXTT3=
PLAYORDER=
